<svg version="1.1"
	 xmlns="http://www.w3.org/2000/svg" xmlns:xlink="http://www.w3.org/1999/xlink" xmlns:a="http://ns.adobe.com/AdobeSVGViewerExtensions/3.0/"
	 x="0px" y="0px" viewBox="0 0 3374.1 1000" style="enable-background:new 0 0 3374.1 1000;"
	 xml:space="preserve">
<style type="text/css">
	.st0{fill-rule:evenodd;clip-rule:evenodd;fill:#FFFFFF;}
	.st1{fill-rule:evenodd;clip-rule:evenodd;fill:#BB0D31;}
	.st2{fill-rule:evenodd;clip-rule:evenodd;fill:#980E26;}
</style>
<path id="Empiricus_2_" class="st0" d="M3374.1,557.6c0,53.5-42.3,92.4-111.8,92.4c-21.2,0-41.9-2.6-58.7-6.9l2.6-44.5
	c16.4,6.1,39.3,10.8,60.4,10.8c31.9,0,57.8-13.4,57.8-44.9c0-61.3-127.3-35.4-127.3-129.5c0-50.1,39.3-85,107.1-85
	c17.2,0,34.9,2.2,52.7,5.2l-2.6,41.9c-16.8-5.2-35.4-8.2-52.7-8.2c-36.3,0-54.8,16.8-54.8,41
	C3246.8,488.1,3374.1,466.6,3374.1,557.6z M3050.2,350v185.3c0,55.2-21.9,75.3-70.1,75.3c-54.8,0-67.9-29.8-67.9-69.2V350h-47.7
	v194.9c0,54.3,19.7,105.1,112.6,105.1c77.5,0,120-39.4,120-118.3V350H3050.2z M2738.9,593.8c-16.1,7.8-41.8,13.5-61.8,13.5
	c-64,0-93.2-38.8-93.2-107.1c0-61.4,27.9-108.4,89.3-108.4c21.3,0,42.2,3.5,63.6,10l5.2-43.5c-20.5-4.8-43.1-8.3-64.9-8.3
	c-98.8,0-145,66.6-145,158.1c0,78.4,36.1,141.9,134.6,141.9c28.3,0,55.7-5.2,77.9-13.9L2738.9,593.8z M2363.6,350v300h48.4V350
	H2363.6z M2243.6,650h-60.5l-92.8-129h-2.2v129H2040V351.8c21.6-1.3,46.4-1.8,80-1.8c61.9,0,104.3,21.7,104.3,80.9
	c0,47.7-35.8,78.2-84.4,83.5c8.4,10.6,17.7,22.1,25.2,31.8L2243.6,650z M2111.5,485.6c38.9,0,62.3-19.9,62.3-49.5
	c0-32.7-20.3-46.8-60.5-46.8c-9.3,0-18.1,0.4-25.2,0.9l0,94.6C2092.5,485.2,2100.9,485.6,2111.5,485.6z M1871.5,350v300h48.4V350
	H1871.5z M1751.5,439.7c0,57.9-46.4,101.2-115.8,101.2c-6.6,0-14.6,0-22.1-0.9v110h-48.2V351.8c23-0.9,48.6-1.8,76.4-1.8
	C1712.7,350,1751.5,384.5,1751.5,439.7z M1701.6,443.7c0-34-19.9-54.3-63.2-54.3c-9.3,0-16.8,0-24.7,0.9v109.1
	c6.6,0.9,14.1,1.8,21.2,1.8C1675.1,500.7,1701.6,478.6,1701.6,443.7z M1394.4,650h51.1l-45.8-300h-58.2l-59.1,175.1
	c-7.1,22.2-12,37.3-16.4,59.6h-0.9c-3.6-19.6-9.3-39.6-16.4-61.3L1190.9,350h-57.8l-44.9,300h49.3l19.1-155.1
	c3.1-28.4,6.2-52,8-77.8l0.9,0c3.6,21.8,11.1,47.5,19.1,71.1l53.8,161.8h50.2l56.4-174.2c7.6-22.2,12-41.8,15.6-58.7l0.9,0
	c2.2,19.5,4.5,41.3,9.3,73.3L1394.4,650L1394.4,650z M810,650h158.2v-41.3H858.4v-93.3h104.4v-39.6H858.4v-85.3h109.8V350H810V650z"
	/>
<g id="Marca_2_">
	<path class="st1" d="M551.6,913.6c-22.6-3.2-45.3-7.5-68.2-12.8c-6.6-1.6-14-12.8-16.1-24.9l-0.1-0.5c-20.6-1.2-41.2-3.1-62-5.7
		c-9.9-1.4-19.9-15.6-21.8-31.7c-7-56.4-11-113.2-12.1-169.9c-11.7,2.7-23.4,5.3-35.1,7.6c1.9,78.7,10,157.2,24.3,235
		c4.6,25.4-4.6,40.5-21.6,33.4c-37.3-14.9-74.9-32-112.9-51.2c6.3,29,13.9,57.7,22.7,86.2c4.1,13.4,2.3,21-4.1,21
		c-3.2,0-7.5-1.9-12.8-5.8c-54.6-39.6-110.9-84.3-169-134.1c-17-14.8-33.6-33.5-36.4-41.4C0.7,747.9-6.2,672.3,5.6,598.9
		c1.3-8.2,15.3-23,31.1-33.9c25.4-17,51.1-35.2,77.1-54.6c2.4-14.3,5.1-28.5,8.2-42.7c2.9-12.9,20.9-35.5,39.9-51.1
		c42.8-34.5,86.3-71.2,130.5-110.1c5.6-19.9,11.8-39.8,18.4-59.5c5.1-15.2,22.9-40.6,39.3-57.2C406.5,133.6,464,74.3,522.8,12
		c17.2-18.3,24.1-15.5,15.7,6.7c-39.5,105.4-68.6,213.5-87.3,323c24.3-18.2,48.8-37.3,73.5-57.1c11.2-9,17.1,0,13.7,20.5
		c-10.7,63.8-18.3,128-22.8,192.4c5.1-2.9,10.2-5.8,15.4-8.7c7-4.1,11.7,4.5,10.8,19.1c-7.7,127.1-1.9,254.8,17.6,380.9
		C561.5,903.5,558.2,914.6,551.6,913.6z"/>
	<path class="st2" d="M506.7,876.8c-13.1-0.2-26.3-0.6-39.4-1.4c-18.3-105.8-25.3-213.1-21-320.1c0.5-12.3,6.6-24.9,13.4-28.4
		c18.5-9.2,37.2-18.9,55.9-29.4c-8,114-6.5,228.4,4.7,342.2C522.3,860.4,516.4,877.1,506.7,876.8z M411.1,371.2
		c-10.9,8-21.7,27.2-24,43.2c-11.9,84.1-17.2,168.9-15.8,253.6c10.4-2.5,21-5.1,31.4-7.9c12.8-3.3,23-25.2,23.3-48.5
		c1.4-90.4,9.9-180.6,25.1-270C437.9,351.8,424.4,361.7,411.1,371.2z M362.4,243.3C339,265,315.6,286,292.5,306.5
		c-32.4,115.5-47.7,234.5-45.7,353.3c0.2,15.8,11.2,27.9,23.9,26.4c21.8-2.7,43.8-6.2,65.6-10.5c-3.4-141.5,13.1-283.4,49.6-421.4
		C392.6,229.3,382.4,224.7,362.4,243.3z M224.1,451.8c2.7-12.5,0.1-19.1-6-19.1c-3.9,0-9.2,2.6-15.5,7.9
		c-29.9,24.7-59.5,48-88.7,69.8c-16.6,101.3-13.6,205.2,9.2,305.6c2.9,12.9,20,32,37.6,42.2c21.8,12.3,43.9,23.8,65.4,34.7
		C194.4,747.5,193.5,597.2,224.1,451.8z"/>
</g>
</svg>